<svg width="510" height="512" viewBox="0 0 510 512" fill="none" xmlns="http://www.w3.org/2000/svg">
<path d="M255 511.979C395.833 511.979 510 397.369 510 255.99C510 114.61 395.833 0 255 0C114.168 0 0 114.61 0 255.99C0 397.369 114.168 511.979 255 511.979Z" fill="white"/>
<path d="M420.92 393.49C406.846 389.524 408.903 381.539 387.405 381.539C366.533 381.539 367.837 395.632 344.156 395.632C320.525 395.632 323.41 381.539 298.8 381.539C279.76 381.539 277.452 395.632 257.91 395.632C224.445 395.632 236.437 381.539 209.644 381.539C189.927 381.539 189.099 395.632 165.694 395.632C143.568 395.632 140.532 381.539 121.818 381.539C107.268 381.539 105.211 388.995 88.6792 393.041C93.4459 398.937 98.5134 404.517 103.831 409.885H406.119C411.262 404.649 416.228 399.202 420.92 393.49Z" fill="#25579E"/>
<path d="M385.448 428.05C362.343 425.592 365.605 414.565 340.368 414.565C318.468 414.565 321.177 428.58 298.073 428.58C274.417 428.58 279.183 414.565 254.523 414.565C235.584 414.565 228.309 428.58 208.842 428.58C179.942 428.58 186.239 414.565 165.468 414.565C146.728 414.565 145.048 427.204 125.029 428.526C131.827 433.709 138.927 438.548 146.277 442.832H363.598C371.224 438.363 378.499 433.471 385.448 428.05Z" fill="#25579E"/>
<path d="M208.992 448.12C194.969 448.12 190.529 455.287 180.62 459.358C203.874 468.005 228.861 472.739 255 472.739C280.237 472.739 304.394 468.296 326.846 460.258C317.289 456.344 316.887 448.12 298.073 448.12C279.082 448.12 276.775 462.214 257.283 462.214C223.843 462.241 235.759 448.12 208.992 448.12Z" fill="#25579E"/>
<path d="M463.717 308.055C455.714 318.262 444.2 326.327 431.581 326.327C404.288 326.327 406.295 312.233 385.222 312.233C384.068 312.233 383.14 312.259 382.161 312.338V313.581C382.161 321.17 380.982 330.822 378.023 340.579H452.829C457.269 330.134 460.882 319.266 463.717 308.055Z" fill="#25579E"/>
<path d="M127.588 312.444C126.434 312.338 125.23 312.259 123.825 312.259C100.344 312.259 108.422 326.327 74.3807 326.327C67.4566 326.327 54.4872 321.064 47.7139 313.555C50.2978 322.81 53.4085 331.88 57.0961 340.606H131.777C128.717 330.848 127.563 321.196 127.563 313.608V312.444H127.588Z" fill="#25579E"/>
<path d="M237.665 328.019C236.762 332.462 235.659 336.666 234.53 340.579H275.295C274.116 336.666 272.987 332.462 272.058 328.019H237.665Z" fill="#25579E"/>
<path d="M448.238 347.851C429.951 351.288 428.922 360.649 400.7 360.649C384.62 360.649 377.822 357.555 372.328 354.276C368.063 362.447 362.118 369.719 354.09 374.902H433.086C438.756 366.281 443.798 357.238 448.238 347.851Z" fill="#25579E"/>
<path d="M281.742 356.074C278.606 350.178 269.124 346.555 253.846 346.555C242.382 346.555 231.996 349.569 228.183 355.757C224.37 361.944 218.098 370.459 211.275 374.902H298.399C291.827 370.485 284.878 361.998 281.742 356.074Z" fill="#25579E"/>
<path d="M138.3 355.889C133.283 358.507 127.211 360.649 118.155 360.649C95.8537 360.649 95.6033 346.555 76.9388 346.555C69.3379 346.555 65.1988 348.591 60.5829 351.13C64.5967 359.3 69.1875 367.259 74.1039 374.875H155.684C148.183 370.089 142.539 363.346 138.3 355.889Z" fill="#25579E"/>
<path d="M39.8869 243.165C39.7364 246.867 39.6612 250.543 39.6612 254.218V254.244C39.6612 269.898 41.2416 285.129 44.3773 299.804H127.563V246.629L39.8869 243.165Z" fill="#FFDC12"/>
<path d="M468.708 227.828C466.425 209.133 461.835 191.1 455.363 174.203L382.187 203.369V237.665L468.708 227.828Z" fill="#FFDC12"/>
<path d="M346.54 237.665V217.648L302.162 235.338V237.665H346.54Z" fill="#FFDC12"/>
<path d="M54.6375 174.203C48.09 191.1 43.4742 209.133 41.2415 227.828L127.563 237.665V203.369L54.6375 174.203Z" fill="#FFDC12"/>
<path d="M470.088 243.165L382.161 246.629V299.804H465.597C468.684 285.129 470.289 269.872 470.289 254.244C470.314 250.569 470.239 246.867 470.088 243.165Z" fill="#FFDC12"/>
<path d="M205.581 237.665V234.492L163.235 217.569V237.665H205.581Z" fill="#FFDC12"/>
<path d="M379.252 155.825C379.603 156.195 384.319 160.85 384.319 160.85C384.319 160.85 379.829 166.773 378.775 168.121C379.804 169.496 383.943 174.97 383.943 174.97C383.943 174.97 379.803 179.994 378.951 180.972C379.829 181.95 382.137 184.991 382.137 184.991V192.739L449.292 160.215C441.541 143.583 431.581 128.272 420.193 114.337L381.585 147.047L383.667 150.034C383.717 150.034 379.979 154.927 379.252 155.825Z" fill="#FFDC12"/>
<path d="M349.55 186.921C348.797 185.996 344.683 180.814 344.683 180.814C344.683 180.814 348.822 175.578 349.75 174.52C349.7 174.415 349.6 174.309 349.474 174.203L302.162 214.237V231.371L346.54 209.979V190.254C346.54 190.254 348.947 187.557 349.55 186.921Z" fill="#FFDC12"/>
<path d="M347.643 164.419C348.471 163.414 349.223 162.462 349.45 162.146C348.947 161.643 344.507 156.804 344.507 156.804C344.507 156.804 348.922 151.066 350.051 149.638C348.797 147.893 340.694 136.153 340.694 136.153H374.134L375.012 137.369C387.681 124.861 399.647 112.909 409.906 102.703C397.113 89.2964 382.689 77.5027 366.909 67.6927L302.137 175.499V209.16C316.11 195.569 331.788 180.073 347.643 164.419Z" fill="#FFDC12"/>
<path d="M302.162 108.414V160.982L353.388 59.9714C337.458 51.5891 320.449 45.2958 302.463 41.1444L287.637 107.753C290.271 108.15 293.031 108.414 295.941 108.414H302.162Z" fill="#FFDC12"/>
<path d="M130.774 180.972C130.021 179.994 125.782 174.97 125.782 174.97C125.782 174.97 129.996 169.496 130.975 168.121C129.921 166.773 125.481 160.85 125.481 160.85C125.481 160.85 130.121 156.195 130.548 155.825C129.871 154.927 126.033 150.034 126.033 150.034L128.19 146.888L89.7079 114.337C78.2683 128.298 68.3596 143.609 60.5829 160.215L127.588 192.634V184.965C127.588 184.965 129.921 181.95 130.774 180.972Z" fill="#FFDC12"/>
<path d="M160.35 174.098C160.225 174.256 160.074 174.414 160.049 174.52C160.902 175.578 165.042 180.814 165.042 180.814C165.042 180.814 160.952 185.996 160.225 186.922C160.802 187.503 163.235 190.253 163.235 190.253V209.927L205.581 230.314V212.439L160.35 174.098Z" fill="#FFDC12"/>
<path d="M169.056 136.153C169.056 136.153 160.952 147.893 159.773 149.638C160.852 151.013 165.267 156.804 165.267 156.804C165.267 156.804 160.802 161.616 160.3 162.119C160.526 162.33 160.977 162.938 161.58 163.653C176.782 178.699 191.959 193.692 205.605 207.071V171.956L143.066 67.6927C127.262 77.5027 112.787 89.2964 100.068 102.703C110.329 112.909 122.27 124.782 134.863 137.316L135.665 136.179H169.056V136.153Z" fill="#FFDC12"/>
<path d="M211.225 58.0675L207.412 41.1444C189.525 45.2958 172.417 51.5891 156.562 59.9714L205.581 156.671V81.0727C205.581 73.2718 207.412 65.1805 211.225 58.0675Z" fill="#FFDC12"/>
<path d="M232.623 309.509H202.37L185.16 326.961C185.16 326.961 219.854 332.356 232.623 309.509Z" fill="#924E18"/>
<path d="M277.227 309.509H307.455L324.589 326.961C324.589 326.961 289.92 332.356 277.227 309.509Z" fill="#924E18"/>
<path d="M341.121 292.136H168.228V299.566H341.121V292.136Z" fill="#924E18"/>
<path d="M295.941 112.089C272.661 112.089 258.662 99.5561 258.662 78.481C258.662 55.159 286.684 46.0892 286.935 46.0628L286.684 40.9065C286.257 40.8272 277.527 39.1877 251.714 39.1877C222.539 39.1877 209.268 60.8442 209.268 81.0465V213.946L298.575 239.357V112.089H295.941ZM293.331 232.456C287.386 230.763 217.898 210.985 214.486 209.979V81.0728C214.486 67.4284 222.313 44.4498 251.739 44.4498C262.927 44.4498 270.654 44.7671 276.072 45.1373C266.615 50.2407 253.52 60.6326 253.52 78.481C253.52 101.645 268.797 116.188 293.357 117.22V232.456H293.331Z" fill="#924E18"/>
<path d="M201.166 248.347H196.174L190.203 254.535L190.83 252.79C190.83 248.771 188.146 248.268 186.842 248.268H185.587C184.182 248.268 181.122 248.744 181.122 252.79L181.749 254.535L175.728 248.347H170.862L178.739 264.821L171.238 282.775H178.739L183.705 273.203H188.271L193.263 282.775H200.689L193.263 264.821L201.166 248.347Z" fill="#924E18"/>
<path d="M235.357 248.347H230.366L224.445 254.535L225.023 252.79C225.023 248.691 222.263 248.268 221.009 248.268H219.704C218.374 248.268 215.464 248.797 215.464 252.79L216.092 254.535L210.146 248.347H205.104L212.981 264.821L205.53 282.775H212.981L217.923 273.203H222.539L227.556 282.775H234.957L227.556 264.821L235.357 248.347Z" fill="#924E18"/>
<path d="M269.751 248.347H264.683L258.738 254.535L259.29 252.79C259.29 248.797 256.706 248.268 255.402 248.268H254.072C252.692 248.268 249.732 248.691 249.732 252.79L250.334 254.535L244.364 248.347H239.447L247.223 264.821L239.848 282.775H247.223L252.191 273.203H256.857L261.799 282.775H269.299L261.799 264.821L269.751 248.347Z" fill="#924E18"/>
<path d="M304.244 248.347H299.277L293.382 254.535L293.909 252.79C293.909 248.718 291.149 248.268 289.995 248.268H288.641C287.261 248.268 284.351 248.771 284.351 252.79L284.928 254.535L279.007 248.347H274.065L281.917 264.821L274.392 282.775H281.917L286.859 273.203H291.476L296.467 282.775H303.893L296.467 264.821L304.244 248.347Z" fill="#924E18"/>
<path d="M338.537 248.347H333.52L327.625 254.535L328.151 252.79C328.151 248.718 325.417 248.268 324.187 248.268H322.908C321.478 248.268 318.618 248.771 318.618 252.79L319.17 254.535L313.225 248.347H308.258L316.085 264.821L308.609 282.775H316.085L321.052 273.203H325.668L330.66 282.775H338.136L330.66 264.821L338.537 248.347Z" fill="#924E18"/>
<path d="M192.31 332.25C169.507 332.25 157.039 317.653 157.039 308.768V192.766L151.972 187.187L157.014 180.814L151.972 174.599L157.014 168.148L151.972 161.802L157.014 156.433L151.972 149.823L157.014 142.472H138.927L133.835 149.823L138.927 156.433L133.835 161.378L138.927 168.121L133.835 174.732L138.927 180.814L133.835 187.187V313.581C133.835 313.581 133.885 376.197 183.48 376.197C228.434 376.197 235.258 324.951 235.258 313.581C227.18 325.797 215.188 332.25 192.31 332.25ZM183.731 371.913C147.055 371.913 141.235 333.44 141.235 312.18V196.573H152.323V308.425C152.323 322.334 168.052 336.005 188.974 337.063C213.583 338.226 223.216 332.594 229.663 326.406C227.33 335.819 216.844 371.913 183.731 371.913Z" fill="#924E18"/>
<path d="M370.922 156.433L375.915 149.823L370.922 142.472H352.76L357.853 149.823L352.76 156.433L357.853 161.802L352.76 168.148L357.853 174.599L352.76 180.814L357.853 187.213L352.76 192.766V308.768C352.76 317.627 340.293 332.25 317.49 332.25C294.586 332.25 282.62 325.797 274.592 313.581C274.592 324.951 281.39 376.197 326.27 376.197C375.915 376.197 375.915 313.581 375.915 313.581V187.187L370.922 180.787L375.915 174.705L370.922 168.095L375.915 161.352L370.922 156.433ZM367.837 312.18C367.837 333.413 362.694 371.913 326.018 371.913C293.031 371.913 282.52 335.846 280.086 326.433C286.508 332.62 296.217 338.252 320.876 337.089C341.773 336.005 357.477 322.36 357.477 308.452V196.599H367.862V312.18H367.837Z" fill="#924E18"/>
<path d="M141.234 196.573V312.154C141.234 333.387 147.055 371.887 183.731 371.887C216.869 371.887 227.33 335.819 229.688 326.406C223.241 332.594 213.583 338.226 188.998 337.063C168.076 336.005 152.348 322.334 152.348 308.425V196.573H141.234Z" fill="#E11719"/>
<path d="M367.837 196.573V312.154C367.837 333.387 362.695 371.887 326.018 371.887C293.031 371.887 282.52 335.819 280.086 326.406C286.508 332.594 296.217 338.226 320.876 337.063C341.773 336.005 357.477 322.334 357.477 308.425V196.573H367.837Z" fill="#E11719"/>
<path d="M253.495 78.508C253.495 60.6591 266.615 50.2937 276.022 45.1638C270.629 44.7936 262.902 44.4498 251.714 44.4498C222.313 44.4498 214.461 67.4546 214.461 81.099V210.007C217.898 210.985 287.361 230.763 293.307 232.456V117.22C268.772 116.188 253.495 101.671 253.495 78.508Z" fill="#E11719"/>
</svg>
